<?xml version="1.0" standalone="no"?>
<!DOCTYPE svg PUBLIC "-//W3C//DTD SVG 20010904//EN"
 "http://www.w3.org/TR/2001/REC-SVG-20010904/DTD/svg10.dtd">
<svg version="1.0" xmlns="http://www.w3.org/2000/svg"
 width="500.000000pt" height="500.000000pt" viewBox="0 0 500.000000 500.000000"
 preserveAspectRatio="xMidYMid meet">
<metadata>
Created by potrace 1.14, written by Peter Selinger 2001-2017
</metadata>
<g transform="translate(0.000000,500.000000) scale(0.100000,-0.100000)"
fill="#000000" stroke="none">
<path d="M2375 3942 c-79 -7 -261 -47 -355 -78 -425 -137 -775 -502 -899 -939
-66 -231 -75 -482 -26 -690 17 -71 79 -255 107 -315 59 -128 176 -289 293
-404 99 -98 238 -206 265 -206 5 0 10 -4 10 -10 0 -8 127 -73 310 -158 77 -36
90 -40 154 -47 27 -3 52 -7 56 -10 25 -15 271 -23 355 -10 22 3 62 8 89 11 93
11 298 74 400 123 274 133 475 316 643 586 60 96 132 289 149 400 7 47 6 423
-2 475 -51 356 -182 625 -415 858 -113 113 -273 227 -400 285 -88 41 -260 92
-380 113 -80 13 -283 23 -354 16z"/>
</g>
</svg>
