<svg width="97" height="31" viewBox="0 0 97 31" fill="none" xmlns="http://www.w3.org/2000/svg">
<path d="M0.400024 20.6H11.32C11.5067 21.16 12.0534 21.64 12.96 22.04C13.8667 22.4133 15.08 22.7067 16.6 22.92C18.1467 23.1067 19.9334 23.2 21.96 23.2C23.96 23.2 25.5334 23.1467 26.68 23.04C27.8534 22.9067 28.68 22.6933 29.16 22.4C29.64 22.08 29.88 21.6533 29.88 21.12C29.88 20.6133 29.4934 20.2267 28.72 19.96C27.9467 19.6667 26.5734 19.4667 24.6 19.36C22.6267 19.2533 19.8534 19.2 16.28 19.2C13.6134 19.2 11.3067 19.08 9.36003 18.84C7.44003 18.5733 5.85336 18.1733 4.60002 17.64C3.37336 17.08 2.46669 16.3867 1.88002 15.56C1.29336 14.7067 1.00002 13.6933 1.00002 12.52C1.00002 10.4933 1.68002 8.82666 3.04002 7.52C4.42669 6.18666 6.50669 5.2 9.28002 4.56C12.08 3.89333 15.5734 3.56 19.76 3.56C25.8934 3.56 30.5734 4.45333 33.8 6.23999C37.0534 8 38.68 10.5467 38.68 13.88H28.32C28.1867 13 27.36 12.3333 25.84 11.88C24.32 11.4 22.16 11.16 19.36 11.16C16.5867 11.16 14.52 11.32 13.16 11.64C11.8267 11.96 11.16 12.5067 11.16 13.28C11.16 13.68 11.3467 14 11.72 14.24C12.0934 14.48 12.7334 14.68 13.64 14.84C14.5734 14.9733 15.88 15.0667 17.56 15.12C19.24 15.1733 21.3734 15.2 23.96 15.2C26.8134 15.2 29.24 15.3467 31.24 15.64C33.24 15.9067 34.8534 16.32 36.08 16.88C37.3334 17.44 38.24 18.16 38.8 19.04C39.36 19.8933 39.64 20.9067 39.64 22.08C39.64 24.1067 39 25.76 37.72 27.04C36.44 28.32 34.4134 29.2667 31.64 29.88C28.8667 30.4933 25.24 30.8 20.76 30.8C18.2267 30.8 15.8934 30.6533 13.76 30.36C11.6534 30.0667 9.77336 29.64 8.12003 29.08C6.46669 28.4933 5.06669 27.7867 3.92002 26.96C2.77336 26.1067 1.89336 25.16 1.28002 24.12C0.693358 23.0533 0.400024 21.88 0.400024 20.6Z" fill="white"/>
<path d="M53.5866 0.119995V6.12H43.4266V0.119995H53.5866ZM43.7066 10.4H53.3066V30H43.7066V10.4Z" fill="white"/>
<path d="M72.1169 30.56C69.2369 30.56 66.6769 30.16 64.4369 29.36C62.1969 28.5333 60.4236 27.3467 59.1169 25.8C57.8369 24.2533 57.1969 22.3867 57.1969 20.2C57.1969 17.9067 57.8369 15.9867 59.1169 14.44C60.4236 12.8933 62.1969 11.7333 64.4369 10.96C66.6769 10.1867 69.2369 9.8 72.1169 9.8C75.3169 9.8 78.0769 10.24 80.3969 11.12C82.7436 11.9733 84.5436 13.1867 85.7969 14.76C87.0769 16.3067 87.7169 18.12 87.7169 20.2C87.7169 21.7467 87.3569 23.16 86.6369 24.44C85.9169 25.6933 84.8769 26.7867 83.5169 27.72C82.1569 28.6267 80.5169 29.3333 78.5969 29.84C76.6769 30.32 74.5169 30.56 72.1169 30.56ZM75.7169 24.48C77.7436 24.48 79.5969 24.36 81.2769 24.12C82.9836 23.8533 84.3436 23.4133 85.3569 22.8C86.3969 22.1867 86.9169 21.32 86.9169 20.2C86.9169 19.0533 86.3969 18.1733 85.3569 17.56C84.3436 16.9467 82.9836 16.52 81.2769 16.28C79.5969 16.04 77.7436 15.92 75.7169 15.92C72.9969 15.92 70.8902 16.28 69.3969 17C67.9036 17.6933 67.1569 18.76 67.1569 20.2C67.1569 21.1333 67.4902 21.92 68.1569 22.56C68.8236 23.2 69.7969 23.68 71.0769 24C72.3569 24.32 73.9036 24.48 75.7169 24.48ZM86.9169 10.4H96.5169V30H87.4769C87.4769 30 87.4236 29.6933 87.3169 29.08C87.2369 28.4667 87.1436 27.5867 87.0369 26.44C86.9569 25.2933 86.9169 23.9467 86.9169 22.4V10.4Z" fill="white"/>
<circle cx="74.5" cy="20.5" r="1.5" fill="white"/>
<circle cx="81" cy="21" r="1" fill="white"/>
</svg>
