<svg width="97" height="31" viewBox="0 0 97 31" fill="none" xmlns="http://www.w3.org/2000/svg">
<path d="M0 20.48H10.92C11.1067 21.04 11.6533 21.52 12.56 21.92C13.4667 22.2933 14.68 22.5867 16.2 22.8C17.7467 22.9867 19.5333 23.08 21.56 23.08C23.56 23.08 25.1333 23.0267 26.28 22.92C27.4533 22.7867 28.28 22.5733 28.76 22.28C29.24 21.96 29.48 21.5333 29.48 21C29.48 20.4933 29.0933 20.1067 28.32 19.84C27.5467 19.5467 26.1733 19.3467 24.2 19.24C22.2267 19.1333 19.4533 19.08 15.88 19.08C13.2133 19.08 10.9067 18.96 8.96 18.72C7.04 18.4533 5.45333 18.0533 4.2 17.52C2.97333 16.96 2.06667 16.2667 1.48 15.44C0.893333 14.5867 0.6 13.5733 0.6 12.4C0.6 10.3733 1.28 8.70667 2.64 7.4C4.02667 6.06667 6.10667 5.08 8.88 4.44C11.68 3.77333 15.1733 3.44 19.36 3.44C25.4933 3.44 30.1733 4.33333 33.4 6.12C36.6533 7.88 38.28 10.4267 38.28 13.76H27.92C27.7867 12.88 26.96 12.2133 25.44 11.76C23.92 11.28 21.76 11.04 18.96 11.04C16.1867 11.04 14.12 11.2 12.76 11.52C11.4267 11.84 10.76 12.3867 10.76 13.16C10.76 13.56 10.9467 13.88 11.32 14.12C11.6933 14.36 12.3333 14.56 13.24 14.72C14.1733 14.8533 15.48 14.9467 17.16 15C18.84 15.0533 20.9733 15.08 23.56 15.08C26.4133 15.08 28.84 15.2267 30.84 15.52C32.84 15.7867 34.4533 16.2 35.68 16.76C36.9333 17.32 37.84 18.04 38.4 18.92C38.96 19.7733 39.24 20.7867 39.24 21.96C39.24 23.9867 38.6 25.64 37.32 26.92C36.04 28.2 34.0133 29.1467 31.24 29.76C28.4667 30.3733 24.84 30.68 20.36 30.68C17.8267 30.68 15.4933 30.5333 13.36 30.24C11.2533 29.9467 9.37333 29.52 7.72 28.96C6.06667 28.3733 4.66667 27.6667 3.52 26.84C2.37333 25.9867 1.49333 25.04 0.88 24C0.293333 22.9333 0 21.76 0 20.48Z" fill="#E9375A"/>
<path d="M53.1866 0V6H43.0266V0H53.1866ZM43.3066 10.28H52.9066V29.88H43.3066V10.28Z" fill="#254AA1"/>
<path d="M71.7169 30.44C68.8369 30.44 66.2769 30.04 64.0369 29.24C61.7969 28.4133 60.0235 27.2267 58.7169 25.68C57.4369 24.1333 56.7969 22.2667 56.7969 20.08C56.7969 17.7867 57.4369 15.8667 58.7169 14.32C60.0235 12.7733 61.7969 11.6133 64.0369 10.84C66.2769 10.0667 68.8369 9.68 71.7169 9.68C74.9169 9.68 77.6769 10.12 79.9969 11C82.3435 11.8533 84.1435 13.0667 85.3969 14.64C86.6769 16.1867 87.3169 18 87.3169 20.08C87.3169 21.6267 86.9569 23.04 86.2369 24.32C85.5169 25.5733 84.4769 26.6667 83.1169 27.6C81.7569 28.5067 80.1169 29.2133 78.1969 29.72C76.2769 30.2 74.1169 30.44 71.7169 30.44ZM75.3169 24.36C77.3435 24.36 79.1969 24.24 80.8769 24C82.5835 23.7333 83.9435 23.2933 84.9569 22.68C85.9969 22.0667 86.5169 21.2 86.5169 20.08C86.5169 18.9333 85.9969 18.0533 84.9569 17.44C83.9435 16.8267 82.5835 16.4 80.8769 16.16C79.1969 15.92 77.3435 15.8 75.3169 15.8C72.5969 15.8 70.4902 16.16 68.9969 16.88C67.5035 17.5733 66.7569 18.64 66.7569 20.08C66.7569 21.0133 67.0902 21.8 67.7569 22.44C68.4235 23.08 69.3969 23.56 70.6769 23.88C71.9569 24.2 73.5035 24.36 75.3169 24.36ZM86.5169 10.28H96.1169V29.88H87.0769C87.0769 29.88 87.0235 29.5733 86.9169 28.96C86.8369 28.3467 86.7435 27.4667 86.6369 26.32C86.5569 25.1733 86.5169 23.8267 86.5169 22.28V10.28Z" fill="#FD4D47"/>
<circle cx="74.1" cy="20.38" r="1.5" fill="#E9375A"/>
<circle cx="80.6" cy="20.88" r="1" fill="#E9375A"/>
</svg>
