<svg width="231" height="66" viewBox="0 0 231 66" fill="none" xmlns="http://www.w3.org/2000/svg">
    <path d="M63.568 27.408C71.44 27.408 77.424 28.88 81.52 31.824C85.616 34.704 87.664 39.088 87.664 44.976C87.664 48.24 87.152 51.184 86.128 53.808C85.104 56.432 83.472 58.64 81.232 60.432C78.992 62.224 76.112 63.6 72.592 64.56C69.136 65.52 64.976 66 60.112 66H0.304L13.072 49.488H61.648C64.016 49.488 65.744 49.136 66.832 48.432C67.92 47.664 68.464 46.448 68.464 44.784C68.464 43.12 67.92 41.936 66.832 41.232C65.744 40.528 64.016 40.176 61.648 40.176H26.704C22.544 40.176 18.96 39.728 15.952 38.832C12.944 37.936 10.448 36.688 8.464 35.088C6.48 33.488 5.008 31.568 4.048 29.328C3.088 27.024 2.608 24.496 2.608 21.744C2.608 18.736 3.12 16.016 4.144 13.584C5.232 11.088 6.864 8.976 9.04 7.248C11.28 5.51999 14.128 4.17599 17.584 3.216C21.104 2.256 25.296 1.776 30.16 1.776H85.936L73.168 18.48H28.624C26.32 18.48 24.592 18.8 23.44 19.44C22.352 20.08 21.808 21.232 21.808 22.896C21.808 24.56 22.352 25.744 23.44 26.448C24.592 27.088 26.32 27.408 28.624 27.408H63.568ZM116.646 66H96.7735V1.776H116.646V66ZM156.185 66L168.185 49.488H184.313C186.233 49.488 188.217 49.488 190.265 49.488C192.377 49.488 194.201 49.552 195.737 49.68C194.841 48.528 193.785 47.088 192.569 45.36C191.417 43.568 190.297 41.904 189.209 40.368L177.689 23.376L147.545 66H124.025L165.209 7.92C166.553 6.064 168.249 4.4 170.297 2.928C172.345 1.456 174.937 0.719999 178.073 0.719999C181.081 0.719999 183.577 1.424 185.561 2.832C187.609 4.176 189.337 5.872 190.745 7.92L230.873 66H156.185Z" fill="#091338"/>
</svg>
